<svg width="150" height="60" viewBox="0 0 150 60" fill="none" xmlns="http://www.w3.org/2000/svg">
<path d="M0 42.6252L2.53378 40.9081C4.96622 45.0494 7.80405 46.5645 11.7568 46.5645C17.6351 46.5645 20.473 43.1303 20.473 35.3527V0.808105H23.8176V35.6557C23.8176 43.4333 20.5743 49.5948 11.8581 49.5948C6.48649 49.5948 2.43243 47.1706 0 42.6252Z" fill="black"/>
<path d="M34.561 31.4132C34.561 19.9993 41.9597 13.0298 49.8651 13.0298C58.1759 13.0298 63.2435 18.8882 63.2435 29.191C63.2435 30.1001 63.2435 30.9081 63.0408 31.8172H37.9056C38.007 40.6048 43.1759 46.9683 51.0813 46.9683C54.8313 46.9683 57.8718 45.7562 60.507 43.8371L61.8246 46.2613C59.0881 47.9784 55.9462 49.6955 50.7773 49.6955C41.757 49.5945 34.561 42.827 34.561 31.4132ZM60.2029 29.09C60.2029 20.2013 56.1489 15.757 49.8651 15.757C43.9867 15.757 38.6151 20.8074 37.8043 29.09H60.2029Z" fill="black"/>
<path d="M73.5814 39.0899V16.6663H68.1084V14.1411L73.6827 13.8381L74.0881 3.7373H76.8246V13.8381H86.9597V16.6663H76.8246V39.393C76.8246 43.8373 77.9395 46.8675 82.8043 46.8675C84.1219 46.8675 85.9462 46.3625 87.1625 45.7564L87.9733 48.3826C85.9462 49.0897 83.7165 49.6957 82.2976 49.6957C75.507 49.5947 73.5814 45.3524 73.5814 39.0899Z" fill="black"/>
<path d="M95.8784 0.808105H99.223V48.7867H95.8784V0.808105Z" fill="black"/>
<path d="M110.27 24.6458C110.27 9.49471 118.479 0 130.034 0C141.588 0 149.797 9.49471 149.797 24.6458C149.797 39.797 141.588 49.5947 130.034 49.5947C118.581 49.5947 110.27 39.797 110.27 24.6458ZM146.351 24.6458C146.351 11.3128 139.865 3.03023 130.034 3.03023C120.202 3.03023 113.716 11.4139 113.716 24.6458C113.716 37.9788 120.202 46.7665 130.034 46.7665C139.865 46.7665 146.351 37.9788 146.351 24.6458ZM127.905 48.6856L131.554 48.5846C133.581 53.938 138.142 56.9683 144.425 56.9683C146.554 56.9683 148.074 56.6652 149.29 56.3622L150 59.1904C148.784 59.5945 146.452 59.9985 144.121 59.9985C135.709 60.0995 130.135 55.1501 127.905 48.6856Z" fill="black"/>
</svg>
