<svg width="21" height="20" viewBox="0 0 21 20" fill="none" xmlns="http://www.w3.org/2000/svg">
<mask id="path-1-inside-1_1_106" fill="white">
<path d="M20.8 10.0092C20.7981 12.1326 20.1202 14.2004 18.8646 15.9129C17.609 17.6254 15.8409 18.8938 13.8163 19.5343C11.7917 20.1748 9.61576 20.1541 7.60367 19.4754C5.59157 18.7967 3.84778 17.495 2.62485 15.7591C1.40192 14.0231 0.763347 11.9429 0.801629 9.81972C0.839912 7.69657 1.55306 5.64074 2.83778 3.94996C4.1225 2.25919 5.91208 1.02128 7.94734 0.415519C9.98259 -0.190242 12.1578 -0.132398 14.158 0.580674L20.8 10.0092ZM5.78649 9.29452L10.0764 13.5834L20.0854 3.57437"/>
</mask>
<path d="M20.8 10.0092L22.3 10.0105L22.3004 9.53448L22.0263 9.1453L20.8 10.0092ZM14.158 0.580674L15.3843 -0.283185L15.1101 -0.672366L14.6617 -0.832225L14.158 0.580674ZM10.0764 13.5834L9.01581 14.6442L10.0765 15.7046L11.137 14.644L10.0764 13.5834ZM19.3 10.0078C19.2984 11.8128 18.7222 13.5703 17.6549 15.026L20.0743 16.7998C21.5182 14.8304 22.2978 12.4525 22.3 10.0105L19.3 10.0078ZM17.6549 15.026C16.5877 16.4816 15.0847 17.5597 13.3638 18.1041L14.2687 20.9644C16.597 20.2278 18.6304 18.7692 20.0743 16.7998L17.6549 15.026ZM13.3638 18.1041C11.6429 18.6485 9.7934 18.631 8.08312 18.0541L7.12422 20.8967C9.43812 21.6773 11.9404 21.701 14.2687 20.9644L13.3638 18.1041ZM8.08312 18.0541C6.37284 17.4772 4.89061 16.3708 3.85112 14.8952L1.39857 16.6229C2.80494 18.6193 4.81031 20.1162 7.12422 20.8967L8.08312 18.0541ZM3.85112 14.8952C2.81163 13.4196 2.26885 11.6514 2.30139 9.84676L-0.698127 9.79268C-0.742152 12.2343 -0.00779814 14.6265 1.39857 16.6229L3.85112 14.8952ZM2.30139 9.84676C2.33393 8.04209 2.9401 6.29463 4.03211 4.85747L1.64344 3.04246C0.166016 4.98685 -0.654102 7.35106 -0.698127 9.79268L2.30139 9.84676ZM4.03211 4.85747C5.12412 3.42032 6.64527 2.36809 8.37524 1.85319L7.51944 -1.02215C5.17889 -0.325528 3.12087 1.09807 1.64344 3.04246L4.03211 4.85747ZM8.37524 1.85319C10.1052 1.33829 11.9542 1.38746 13.6543 1.99357L14.6617 -0.832225C12.3615 -1.65226 9.85998 -1.71878 7.51944 -1.02215L8.37524 1.85319ZM12.9318 1.44453L19.5737 10.873L22.0263 9.1453L15.3843 -0.283185L12.9318 1.44453ZM4.72595 10.3553L9.01581 14.6442L11.1369 12.5226L6.84702 8.23373L4.72595 10.3553ZM11.137 14.644L21.146 4.63503L19.0247 2.51371L9.01569 12.5227L11.137 14.644Z" fill="#0DA800" mask="url(#path-1-inside-1_1_106)"/>
</svg>
